# xmcd CD database file
#
# Track frame offsets:
#	150
#	24658
#	40297
#	60140
#	91328
#	105562
#	117887
#	135058
#	175798
#	191364
#	212720
#	245894
#	271456
#
# Disc length: 4222 seconds
#
# Revision: 0
# Processed by: cddbd v1.5.2PL0 Copyright (c) Steve Scherf et al.
# Submitted via: CDex 1.51
#
DISCID=a8107c0d
DTITLE=Canned Heat - The boogie house tapes Vol.3 Disc 2
DYEAR=2008
DGENRE=Blues
TTITLE0=On the road again
TTITLE1=Hill's stomp
TTITLE2=Let's work together
TTITLE3=Black Jack blues
TTITLE4=She's looking good
TTITLE5=Struttin' that stuff
TTITLE6=Open up your back door
TTITLE7=Election blues
TTITLE8=Midnight special boogie
TTITLE9=Before six
TTITLE10=Feel allright
TTITLE11=Hey babe
TTITLE12=I feel good
EXTD=YEAR: 2008
EXTT0=
EXTT1=
EXTT2=
EXTT3=
EXTT4=
EXTT5=
EXTT6=
EXTT7=
EXTT8=
EXTT9=
EXTT10=
EXTT11=
EXTT12=
PLAYORDER=
